<?xml version="1.0" encoding="UTF-8"?>
<svg width="95px" height="95px" viewBox="0 0 95 95" version="1.1" xmlns="http://www.w3.org/2000/svg" xmlns:xlink="http://www.w3.org/1999/xlink">
    <!-- Generator: Sketch 53.2 (72643) - https://sketchapp.com -->
    <title>recruitment</title>
    <desc>Created with Sketch.</desc>
    <g id="Page-1" stroke="none" stroke-width="1" fill="none" fill-rule="evenodd">
        <g id="Desktop" transform="translate(-123.000000, -568.000000)" fill="#FFFFFF" fill-rule="nonzero">
            <g id="recruitment" transform="translate(123.000000, 568.000000)">
                <path d="M85.5248633,49.986986 C86.3642773,48.746956 86.8548633,47.2540398 86.8548633,45.6490994 L86.8548633,44.1663504 C86.8548633,39.8770815 83.3521094,36.3873251 79.0468652,36.3873251 C76.8987891,36.3873251 74.9505469,37.2563443 73.5374219,38.6597891 C69.8810352,27.8257944 59.590791,20 47.5,20 C35.409209,20 25.1189648,27.8256095 21.4625781,38.6597891 C20.0494531,37.2563443 18.1013965,36.3873251 15.9531348,36.3873251 C11.6478906,36.3873251 8.14513672,39.8770815 8.14513672,44.1663504 L8.14513672,45.6490994 C8.14513672,47.2540398 8.63572266,48.746956 9.47513672,49.986986 C4.0703418,51.1216467 0,55.9085543 0,61.625854 L0,65.3477925 C0,66.3685805 0.830878906,67.1963763 1.85546875,67.1963763 L11.5039062,67.1963763 C12.5284961,67.1963763 13.359375,66.3685805 13.359375,65.3477925 C13.359375,64.3270046 12.5284961,63.4992088 11.5039062,63.4992088 L3.7109375,63.4992088 L3.7109375,61.625854 C3.7109375,57.1055122 7.40220703,53.4279397 11.9393848,53.4279397 L20.7211328,53.4279397 C21.4332617,56.5485339 22.6814355,59.4685568 24.365459,62.0850422 L3.19474609,83.1771978 C0.48390625,85.8781635 0.48390625,90.2731714 3.19493164,92.9743219 C4.55053711,94.3248972 6.33085937,95 8.11155273,95 C9.89224609,95 11.6729395,94.3247124 13.0285449,92.9743219 L24.7,81.3459908 C25.4245605,80.6241188 25.4245605,79.4535956 24.7,78.7315388 C23.9752539,78.0098517 22.8007422,78.0098517 22.0758105,78.7315388 L10.404541,90.35987 C9.14003906,91.6194949 7.08306641,91.6193101 5.81875,90.3600548 C4.55461914,89.1004299 4.55461914,87.0509051 5.81875,85.7912801 L26.6012988,65.0860331 C31.6420508,70.9759906 39.1401855,74.7180787 47.5,74.7180787 C60.5491406,74.7180787 71.5004883,65.6027122 74.2788672,53.4279397 L83.0606152,53.4279397 C87.597793,53.4279397 91.2890625,57.1055122 91.2890625,61.625854 L91.2890625,63.4992088 L73.8476562,63.4992088 C72.8230664,63.4992088 71.9921875,64.3270046 71.9921875,65.3477925 C71.9921875,66.3685805 72.8230664,67.1963763 73.8476562,67.1963763 L93.1445312,67.1963763 C94.1691211,67.1963763 95,66.3685805 95,65.3477925 L95,61.625854 C95,55.9085543 90.9296582,51.1216467 85.5248633,49.986986 Z M20.0501953,45.6492842 C20.0501953,47.8999349 18.2123535,49.7309571 15.9531348,49.7309571 C13.693916,49.7309571 11.8560742,47.8999349 11.8560742,45.6492842 L11.8560742,44.1665352 C11.8560742,41.9156997 13.693916,40.0846775 15.9531348,40.0846775 C18.2123535,40.0846775 20.0501953,41.9156997 20.0501953,44.1665352 L20.0501953,45.6492842 Z M47.5,71.0209112 C34.4042871,71.0209112 23.75,60.4061585 23.75,47.3590393 C23.75,34.3119202 34.4042871,23.6971675 47.5,23.6971675 C60.5957129,23.6971675 71.25,34.3119202 71.25,47.3590393 C71.25,60.4061585 60.5957129,71.0209112 47.5,71.0209112 Z M83.1437402,45.6492842 C83.1437402,47.8999349 81.3058984,49.7309571 79.0466797,49.7309571 C76.7874609,49.7309571 74.9496191,47.8999349 74.9496191,45.6492842 L74.9496191,44.1665352 C74.9496191,41.9156997 76.7874609,40.0846775 79.0466797,40.0846775 C81.3058984,40.0846775 83.1437402,41.9156997 83.1437402,44.1665352 L83.1437402,45.6492842 Z" id="Shape"></path>
                <path d="M47,27 C35.9718519,27 27,35.9718519 27,47 C27,52.7240741 29.4177778,57.8935185 33.2848148,61.5425926 C33.3509259,61.6140741 33.4218519,61.6814815 33.4996296,61.7425926 C37.06,65.0057407 41.8012963,67 47,67 C52.1987037,67 56.94,65.0055556 60.5003704,61.7425926 C60.5781481,61.6816667 60.6490741,61.6140741 60.7151852,61.5425926 C64.5822222,57.8935185 67,52.7240741 67,47 C67,35.972037 58.0281481,27 47,27 Z M47,63.2962963 C43.192037,63.2962963 39.6853704,61.9831481 36.907963,59.7862963 C38.8755556,56.0633333 42.71,53.7209259 47,53.7209259 C51.29,53.7209259 55.1244444,56.0633333 57.092037,59.7862963 C54.3146296,61.9831481 50.807963,63.2962963 47,63.2962963 Z M43.0975926,46.1148148 L43.0975926,44.6761111 C43.0975926,42.5242593 44.8481481,40.7737037 47,40.7737037 C49.1518519,40.7737037 50.9024074,42.5242593 50.9024074,44.6761111 L50.9024074,46.1148148 C50.9024074,48.2666667 49.1518519,50.0172222 47,50.0172222 C44.8481481,50.0172222 43.0975926,48.2666667 43.0975926,46.1148148 Z M59.8009259,57.0738889 C58.1044444,54.367037 55.6212963,52.3027778 52.715,51.1257407 C53.8907407,49.7862963 54.6061111,48.0331481 54.6061111,46.115 L54.6061111,44.6762963 C54.6061111,40.4824074 51.1938889,37.0701852 47,37.0701852 C42.8061111,37.0701852 39.3938889,40.4824074 39.3938889,44.6762963 L39.3938889,46.115 C39.3938889,48.0331481 40.1090741,49.7862963 41.285,51.1257407 C38.3787037,52.302963 35.8957407,54.367037 34.1990741,57.0738889 C32.0109259,54.2994444 30.7037037,50.7996296 30.7037037,47 C30.7037037,38.0142593 38.0142593,30.7037037 47,30.7037037 C55.9857407,30.7037037 63.2962963,38.0142593 63.2962963,47 C63.2962963,50.7996296 61.9890741,54.2994444 59.8009259,57.0738889 Z" id="Shape"></path>
                <path d="M29.5605,74.4395 C29.2815,74.1605 28.8945,74 28.5,74 C28.1055,74 27.7185,74.1605 27.4395,74.4395 C27.16065,74.7185 27,75.1055 27,75.5 C27,75.8945 27.1605,76.2815 27.4395,76.5605 C27.7185,76.83935 28.1055,77 28.5,77 C28.8945,77 29.2815,76.8395 29.5605,76.5605 C29.83935,76.2815 30,75.8945 30,75.5 C30,75.1055 29.8395,74.7185 29.5605,74.4395 Z" id="Shape"></path>
                <path d="M47.5,0 C46.6717,0 46,0.828890863 46,1.85102917 L46,8.14897083 C46,9.17129424 46.6717,10 47.5,10 C48.3283,10 49,9.17110914 49,8.14897083 L49,1.85102917 C49,0.828890863 48.3283,0 47.5,0 Z" id="Shape"></path>
                <path d="M48.56035,12.4395 C48.2815,12.1605 47.89585,12 47.5,12 C47.10535,12 46.7185,12.16035 46.4395,12.4395 C46.1605,12.71865 46,13.1055 46,13.5 C46,13.8945 46.16035,14.2815 46.4395,14.56035 C46.7185,14.83935 47.10535,15 47.5,15 C47.896,15 48.2815,14.8395 48.56035,14.56035 C48.83935,14.2815 49,13.8945 49,13.5 C49,13.1055 48.8395,12.7185 48.56035,12.4395 Z" id="Shape"></path>
                <path d="M63.454413,7.54545455 C62.7267774,6.81818182 61.5475829,6.81818182 60.819761,7.54545455 L57.545587,10.8196721 C56.8181377,11.5471311 56.8181377,12.7267139 57.545587,13.4543592 C57.9095911,13.8179955 58.3861123,14 58.8630061,14 C59.3398999,14 59.8164212,13.8179955 60.180239,13.4543592 L63.454413,10.1801416 C64.1818623,9.45268256 64.1818623,8.27309985 63.454413,7.54545455 Z" id="Shape"></path>
                <path d="M37.4568558,10.8339118 L34.1659999,7.54301232 C33.4416222,6.81899589 32.2677074,6.81899589 31.5431442,7.54301232 C30.8189519,8.2672142 30.8189519,9.44151543 31.5431442,10.1659028 L34.8341855,13.4568022 C35.1963744,13.8188104 35.6709475,14 36.1455207,14 C36.6200938,14 37.0946669,13.8188104 37.4568558,13.4568022 C38.1810481,12.7326003 38.1810481,11.5582991 37.4568558,10.8339118 Z" id="Shape"></path>
            </g>
        </g>
    </g>
</svg>