<?xml version="1.0" encoding="UTF-8"?>
<svg width="72px" height="80px" viewBox="0 0 72 80" version="1.1" xmlns="http://www.w3.org/2000/svg" xmlns:xlink="http://www.w3.org/1999/xlink">
    <!-- Generator: Sketch 53.2 (72643) - https://sketchapp.com -->
    <title>calendar</title>
    <desc>Created with Sketch.</desc>
    <g id="Page-1" stroke="none" stroke-width="1" fill="none" fill-rule="evenodd">
        <g id="Desktop" transform="translate(-817.000000, -576.000000)" fill="#FFFFFF" fill-rule="nonzero">
            <g id="calendar" transform="translate(817.000000, 576.000000)">
                <path d="M65.671875,9.375 L63.5625,9.375 L63.5625,7.03125 C63.5625,3.15421875 60.7237031,0 57.234375,0 C53.7450469,0 50.90625,3.15421875 50.90625,7.03125 L50.90625,9.375 L42.46875,9.375 L42.46875,7.03125 C42.46875,3.15421875 39.6299531,0 36.140625,0 C32.6512969,0 29.8125,3.15421875 29.8125,7.03125 L29.8125,9.375 L21.09375,9.375 L21.09375,7.03125 C21.09375,3.15421875 18.2549531,0 14.765625,0 C11.2762969,0 8.4375,3.15421875 8.4375,7.03125 L8.4375,9.375 L6.328125,9.375 C2.83879687,9.375 0,12.5292187 0,16.40625 C0,16.74625 0,72.07 0,72.96875 C0,76.8457812 2.83879687,80 6.328125,80 L65.671875,80 C69.1612031,80 72,76.8457812 72,72.96875 C72,72.5370312 72,17.1678125 72,16.40625 C72,12.5292187 69.1612031,9.375 65.671875,9.375 Z M55.125,7.03125 C55.125,5.73890625 56.0712656,4.6875 57.234375,4.6875 C58.3974844,4.6875 59.34375,5.73890625 59.34375,7.03125 L59.34375,16.40625 C59.34375,17.6985938 58.3974844,18.75 57.234375,18.75 C56.0712656,18.75 55.125,17.6985938 55.125,16.40625 L55.125,7.03125 Z M34.03125,7.03125 C34.03125,5.73890625 34.9775156,4.6875 36.140625,4.6875 C37.3037344,4.6875 38.25,5.73890625 38.25,7.03125 L38.25,16.40625 C38.25,17.6985938 37.3037344,18.75 36.140625,18.75 C34.9775156,18.75 34.03125,17.6985938 34.03125,16.40625 L34.03125,7.03125 Z M12.65625,7.03125 C12.65625,5.73890625 13.6025156,4.6875 14.765625,4.6875 C15.9287344,4.6875 16.875,5.73890625 16.875,7.03125 L16.875,16.40625 C16.875,17.6985938 15.9287344,18.75 14.765625,18.75 C13.6025156,18.75 12.65625,17.6985938 12.65625,16.40625 L12.65625,7.03125 Z M67.78125,72.96875 C67.78125,74.2610938 66.8349844,75.3125 65.671875,75.3125 L6.328125,75.3125 C5.16501563,75.3125 4.21875,74.2610938 4.21875,72.96875 L4.21875,33.125 L67.78125,33.125 L67.78125,72.96875 Z M67.78125,28.4375 L4.21875,28.4375 L4.21875,16.40625 C4.21875,15.1139062 5.16501563,14.0625 6.328125,14.0625 L8.4375,14.0625 L8.4375,16.40625 C8.4375,20.2832812 11.2762969,23.4375 14.765625,23.4375 C18.2549531,23.4375 21.09375,20.2832812 21.09375,16.40625 L21.09375,14.0625 L29.8125,14.0625 L29.8125,16.40625 C29.8125,20.2832812 32.6512969,23.4375 36.140625,23.4375 C39.6299531,23.4375 42.46875,20.2832812 42.46875,16.40625 L42.46875,14.0625 L50.90625,14.0625 L50.90625,16.40625 C50.90625,20.2832812 53.7450469,23.4375 57.234375,23.4375 C60.7237031,23.4375 63.5625,20.2832812 63.5625,16.40625 L63.5625,14.0625 L65.671875,14.0625 C66.8349844,14.0625 67.78125,15.1139062 67.78125,16.40625 L67.78125,28.4375 Z" id="Shape"></path>
                <path d="M61.075177,37.5510204 L10.1901291,37.5510204 C9.0256768,37.5510204 8.08163265,38.5952964 8.08163265,39.8833819 L8.08163265,67.8717201 C8.08163265,69.1598056 9.0256768,70.2040816 10.1901291,70.2040816 L61.075177,70.2040816 C62.2396293,70.2040816 63.1836735,69.1598056 63.1836735,67.8717201 L63.1836735,39.8833819 C63.1836735,38.5952964 62.2396293,37.5510204 61.075177,37.5510204 Z M20.7326114,65.5393586 L12.2986256,65.5393586 L12.2986256,56.2099125 L20.7326114,56.2099125 L20.7326114,65.5393586 Z M20.7326114,51.5451895 L12.2986256,51.5451895 L12.2986256,42.2157434 L20.7326114,42.2157434 L20.7326114,51.5451895 Z M33.664723,65.5393586 L24.9496043,65.5393586 L24.9496043,56.2099125 L33.664723,56.2099125 L33.664723,65.5393586 Z M33.664723,51.5451895 L24.9496043,51.5451895 L24.9496043,42.2157434 L33.664723,42.2157434 L33.664723,51.5451895 Z M46.3157018,65.5393586 L37.881716,65.5393586 L37.881716,56.2099125 L46.3157018,56.2099125 L46.3157018,65.5393586 Z M46.3157018,51.5451895 L37.881716,51.5451895 L37.881716,42.2157434 L46.3157018,42.2157434 L46.3157018,51.5451895 Z M58.9666805,65.5393586 L50.5326947,65.5393586 L50.5326947,56.2099125 L58.9666805,56.2099125 L58.9666805,65.5393586 Z M58.9666805,51.5451895 L50.5326947,51.5451895 L50.5326947,42.2157434 L58.9666805,42.2157434 L58.9666805,51.5451895 Z" id="Shape"></path>
            </g>
        </g>
    </g>
</svg>