<?xml version="1.0" encoding="UTF-8"?>
<svg width="76px" height="62px" viewBox="0 0 76 62" version="1.1" xmlns="http://www.w3.org/2000/svg" xmlns:xlink="http://www.w3.org/1999/xlink">
    <!-- Generator: Sketch 53.2 (72643) - https://sketchapp.com -->
    <title>Shape</title>
    <desc>Created with Sketch.</desc>
    <g id="Page-1" stroke="none" stroke-width="1" fill="none" fill-rule="evenodd">
        <g id="noun_menu_1807551" transform="translate(0.000000, -1.000000)" fill="#FFFFFF" fill-rule="nonzero">
            <g id="Group" transform="translate(0.000000, 0.637820)">
                <path d="M4,0.36218 C1.7909,0.36218 0,2.15298 0,4.36218 C0,6.57138 1.7909,8.36218 4,8.36218 L72,8.36218 C74.2091,8.36218 76,6.57138 76,4.36218 C76,2.15298 74.2091,0.36218 72,0.36218 L4,0.36218 Z M4,27.36218 C1.7909,27.36218 0,29.153 0,31.3622 C0,33.5714 1.7909,35.3622 4,35.3622 L72,35.3622 C74.2091,35.3622 76,33.5714 76,31.3622 C76,29.153 74.2091,27.36218 72,27.36218 L4,27.36218 Z M4,54.3622 C1.7909,54.3622 0,56.153 0,58.3622 C0,60.5714 1.7909,62.3622 4,62.3622 L72,62.3622 C74.2091,62.3622 76,60.5714 76,58.3622 C76,56.153 74.2091,54.3622 72,54.3622 L4,54.3622 Z" id="Shape"></path>
            </g>
        </g>
    </g>
</svg>