<?xml version="1.0" encoding="UTF-8"?>
<svg width="69px" height="76px" viewBox="0 0 69 76" version="1.1" xmlns="http://www.w3.org/2000/svg" xmlns:xlink="http://www.w3.org/1999/xlink">
    <!-- Generator: Sketch 53.2 (72643) - https://sketchapp.com -->
    <title>writing</title>
    <desc>Created with Sketch.</desc>
    <g id="Page-1" stroke="none" stroke-width="1" fill="none" fill-rule="evenodd">
        <g id="Desktop" transform="translate(-477.000000, -578.000000)" fill="#FFFFFF" fill-rule="nonzero">
            <g id="writing" transform="translate(477.000000, 578.000000)">
                <path d="M49,33 C49,31.3431 47.6532602,30 45.9918699,30 L15.0081301,30 C13.3467398,30 12,31.3431 12,33 C12,34.6569 13.3467398,36 15.0081301,36 L45.9918699,36 C47.6532602,36 49,34.6569 49,33 Z" id="Shape"></path>
                <path d="M14.9071352,42 C13.3015244,42 12,43.3431 12,45 C12,46.6569 13.3015244,48 14.9071352,48 L33.0928648,48 C34.6984756,48 36,46.6569 36,45 C36,43.3431 34.6984756,42 33.0928648,42 L14.9071352,42 Z" id="Shape"></path>
                <path d="M22.075565,70.0625 L12.0229915,70.0625 C8.70825275,70.0625 6.01149575,67.3989375 6.01149575,64.125 L6.01149575,11.875 C6.01149575,8.6010625 8.70825275,5.9375 12.0229915,5.9375 L48.9770085,5.9375 C52.2917473,5.9375 54.9885042,8.6010625 54.9885042,11.875 L54.9885042,30.1328125 C54.9885042,31.7724531 56.3341776,33.1015625 57.9942521,33.1015625 C59.6543267,33.1015625 61,31.7724531 61,30.1328125 L61,11.875 C61,5.327125 55.606486,0 48.9770085,0 L12.0229915,0 C5.39351399,0 0,5.327125 0,11.875 L0,64.125 C0,70.672875 5.39351399,76 12.0229915,76 L22.075565,76 C23.7356395,76 25.0813129,74.6708906 25.0813129,73.03125 C25.0813129,71.3916094 23.7356395,70.0625 22.075565,70.0625 Z" id="Shape"></path>
                <path d="M66.3169943,43.5593224 C62.7398317,40.1473545 56.9194882,40.1472086 53.3446192,43.5569889 L36.554708,59.5360951 C36.1981233,59.8754834 35.9351191,60.2934837 35.7886319,60.7531966 L32.1321094,72.2350799 C31.8079414,73.2530989 32.0903651,74.3584808 32.8692856,75.1199532 C33.4527879,75.6903647 34.2454702,76 35.0584895,76 C35.3305154,76 35.6051406,75.9652882 35.8747199,75.8939685 L48.2183315,72.6326615 C48.7262965,72.4984814 49.1893062,72.2413514 49.5624051,71.8860656 L66.3171472,55.9351081 C69.8943098,52.5231401 69.8943098,46.9715821 66.3169943,43.5593224 Z M45.81062,67.2152836 L39.6006633,68.8560736 L41.4179916,63.1491874 L52.7468964,52.3673745 L57.0727034,56.4934142 L45.81062,67.2152836 Z M61.9943984,51.8081933 L61.4018744,52.3721875 L57.0768319,48.246877 L57.6673681,47.6847788 C58.8597556,46.5474561 60.7998701,46.5474561 61.9922576,47.6847788 C63.1846451,48.8221015 63.1846451,50.6726208 61.9943984,51.8081933 Z" id="Shape"></path>
                <path d="M45.9918699,18 L15.0081301,18 C13.3467398,18 12,19.3431 12,21 C12,22.6569 13.3467398,24 15.0081301,24 L45.9918699,24 C47.6532602,24 49,22.6569 49,21 C49,19.3431 47.6532602,18 45.9918699,18 Z" id="Shape"></path>
            </g>
        </g>
    </g>
</svg>